HIERARCHY
ROOT root
{
	OFFSET 0.000000 0.000000 0.000000
	CHANNELS 6 Xposition Yposition Zposition Zrotation Yrotation Xrotation
	JOINT lhip
	{
		OFFSET 0.058581 -0.082280 -0.017664
		CHANNELS 3 Zrotation Yrotation Xrotation
		JOINT lknee
		{
			OFFSET 0.043451 -0.386469 0.008037
			CHANNELS 3 Zrotation Yrotation Xrotation
			JOINT lankle
			{
				OFFSET -0.014790 -0.426874 -0.037428
				CHANNELS 3 Zrotation Yrotation Xrotation
				JOINT ltoe
				{
					OFFSET 0.041054 -0.060286 0.122042
					CHANNELS 3 Zrotation Yrotation Xrotation
					End Site
					{
						OFFSET 0.000000 0.000000 0.000000
					}
				}
			}
		}
	}
	JOINT rhip
	{
		OFFSET -0.060310 -0.090513 -0.013543
		CHANNELS 3 Zrotation Yrotation Xrotation
		JOINT rknee
		{
			OFFSET -0.043257 -0.383688 -0.004843
			CHANNELS 3 Zrotation Yrotation Xrotation
			JOINT rankle
			{
				OFFSET 0.019056 -0.420046 -0.034562
				CHANNELS 3 Zrotation Yrotation Xrotation
				JOINT rtoe
				{
					OFFSET -0.034840 -0.062106 0.130323
					CHANNELS 3 Zrotation Yrotation Xrotation
					End Site
					{
						OFFSET 0.000000 0.000000 0.000000
					}
				}
			}
		}
	}
	JOINT lowerback
	{
		OFFSET 0.004439 0.124404 -0.038385
		CHANNELS 3 Zrotation Yrotation Xrotation
		JOINT upperback
		{
			OFFSET 0.004488 0.137956 0.026820
			CHANNELS 3 Zrotation Yrotation Xrotation
			JOINT chest
			{
				OFFSET -0.002265 0.056032 0.002855
				CHANNELS 3 Zrotation Yrotation Xrotation
				JOINT lowerneck
				{
					OFFSET -0.013390 0.211636 -0.033468
					CHANNELS 3 Zrotation Yrotation Xrotation
					JOINT upperneck
					{
						OFFSET 0.010113 0.088937 0.050410
						CHANNELS 3 Zrotation Yrotation Xrotation
						End Site
						{
							OFFSET 0.000000 0.000000 0.000000
						}
					}
				}
				JOINT lclavicle
				{
					OFFSET 0.071702 0.114000 -0.018898
					CHANNELS 3 Zrotation Yrotation Xrotation
					JOINT lshoulder
					{
						OFFSET 0.122921 0.045205 -0.019046
						CHANNELS 3 Zrotation Yrotation Xrotation
						JOINT lelbow
						{
							OFFSET 0.255332 -0.015649 -0.022946
							CHANNELS 3 Zrotation Yrotation Xrotation
							JOINT lwrist
							{
								OFFSET 0.265709 0.012698 -0.007375
								CHANNELS 3 Zrotation Yrotation Xrotation
								End Site
								{
									OFFSET 0.000000 0.000000 0.000000
								}
							}
						}
					}
				}
				JOINT rclavicle
				{
					OFFSET -0.082954 0.112472 -0.023707
					CHANNELS 3 Zrotation Yrotation Xrotation
					JOINT rshoulder
					{
						OFFSET -0.113228 0.046853 -0.008472
						CHANNELS 3 Zrotation Yrotation Xrotation
						JOINT relbow
						{
							OFFSET -0.260127 -0.014369 -0.031269
							CHANNELS 3 Zrotation Yrotation Xrotation
							JOINT rwrist
							{
								OFFSET -0.269108 0.006794 -0.006027
								CHANNELS 3 Zrotation Yrotation Xrotation
								End Site
								{
									OFFSET 0.000000 0.000000 0.000000
								}
							}
						}
					}
				}
			}
		}
	}
}
MOTION
Frames: 14
Frame Time: 0.033333
0.104182 0.233678 1.012445 85.451475 1.239067 92.047237 3.109927 6.608166 3.794713 4.638704 0.841224 -0.079072 -4.725134 5.928329 -7.315469 0.000000 -0.000000 0.000000 0.609097 -2.223803 -0.925623 -3.731578 -0.229413 0.880373 6.897079 -7.907635 -1.025127 0.000000 -0.000000 0.000000 0.479407 1.698251 3.840850 4.038349 -2.524948 -0.258000 1.040585 -0.807926 -2.741562 2.184674 -1.296155 3.867012 -5.652612 -1.875297 1.715027 -26.522581 5.425507 0.104493 -33.151172 5.037548 10.350831 -20.795708 -43.128977 39.949506 -32.746026 -11.429524 5.374453 21.247218 -4.659684 -1.240416 16.810910 3.875588 -0.447497 -126.002562 45.612602 -124.685638 -0.712574 16.643395 -50.145914 
0.105300 0.233889 1.012481 85.144746 1.177705 91.968306 3.003664 6.460976 4.101502 4.607304 1.040393 -0.222029 -4.680541 6.206638 -7.299622 0.000000 -0.000000 0.000000 0.522815 -2.160294 -0.773847 -3.762082 0.056085 0.818425 6.924348 -8.007885 -1.044926 0.000000 -0.000000 0.000000 0.650034 1.713098 3.806751 3.928533 -2.451150 -0.079705 0.969675 -0.741022 -2.722540 2.200750 -1.403882 4.021949 -5.485797 -1.604228 1.476621 -26.516653 5.442192 0.059271 -33.154138 5.154462 10.597096 -21.177635 -42.931784 40.627887 -32.795846 -11.333109 5.417438 20.795586 -4.535394 -1.183093 16.081850 3.827813 -0.647288 -125.799372 45.664788 -124.731385 -0.827732 16.549746 -50.361625 
0.106269 0.234244 1.012424 85.009258 1.173642 91.946802 2.926354 6.560426 4.269509 4.679388 1.050653 -0.337691 -4.656044 6.300721 -7.275920 0.000000 -0.000000 0.000000 0.508171 -2.181424 -0.794509 -3.818892 0.283682 0.925212 6.944888 -8.079253 -1.083828 0.000000 -0.000000 0.000000 0.843696 1.598141 3.743459 3.798266 -2.407292 -0.002982 1.000866 -0.713819 -2.676516 2.176237 -1.597021 4.418500 -5.463106 -0.930288 1.361440 -26.198965 5.440165 0.014132 -33.444891 5.416210 10.704871 -21.657977 -42.849252 41.360160 -32.644040 -11.263883 5.481671 19.878369 -4.383329 -1.071581 15.618003 3.638634 -0.953930 -125.595084 46.073350 -124.972300 -0.903232 16.566263 -50.679405 
0.107220 0.234763 1.012509 84.864185 1.221501 91.775552 2.906617 6.764345 4.609885 4.765270 0.985734 -0.535581 -4.655882 6.412530 -7.245900 0.000000 -0.000000 0.000000 0.515173 -2.205710 -0.658053 -3.815488 0.518371 1.053210 6.885752 -8.132210 -1.118832 0.000000 -0.000000 0.000000 1.111275 1.530347 3.781442 3.676545 -2.299305 0.178597 0.981331 -0.694524 -2.641482 2.147605 -1.760900 4.998741 -5.319082 -0.484912 1.331046 -25.730282 5.365273 0.242186 -33.684095 5.552054 10.748935 -22.298922 -43.100593 42.490841 -32.673787 -11.391032 5.428212 18.921816 -4.173392 -0.908736 15.040517 3.301400 -1.361059 -125.324569 46.473747 -124.940786 -0.800938 16.437077 -51.193427 
0.107379 0.235245 1.012727 84.940168 1.254715 91.647272 2.930211 6.753476 4.738745 4.768397 0.903109 -0.590125 -4.637006 6.563241 -7.113999 0.000000 -0.000000 0.000000 0.535165 -2.279642 -0.551939 -3.811839 0.651282 1.095051 6.840818 -8.297379 -1.088646 0.000000 -0.000000 0.000000 1.295274 1.437065 3.655118 3.598384 -2.387602 0.628039 1.026580 -0.770055 -2.565755 2.067638 -1.853628 5.942714 -5.065640 0.297246 1.258309 -25.124594 5.104409 0.528260 -33.684265 5.756659 10.946478 -23.397221 -43.658456 43.650228 -32.083109 -11.599286 5.175859 17.813759 -3.849375 -0.731633 14.373322 3.071632 -1.773719 -124.905651 47.227768 -125.064659 -1.159179 16.556660 -51.133361 
0.107246 0.235706 1.012989 85.005967 1.264371 91.569027 2.968758 6.742457 4.809974 4.712156 0.721474 -0.642749 -4.540846 6.783169 -6.975956 0.000000 -0.000000 0.000000 0.531740 -2.363212 -0.546009 -3.796031 0.814673 1.166700 6.784604 -8.489983 -0.989879 0.000000 -0.000000 0.000000 1.398094 1.420769 3.342549 3.538386 -2.455160 1.107649 1.041797 -0.834981 -2.411227 1.949814 -1.823310 7.468129 -4.537261 1.299839 1.532702 -24.271628 4.565265 1.320337 -33.561231 5.931995 11.069299 -24.859041 -44.561930 45.048628 -31.511001 -12.119560 4.654048 16.578859 -3.452189 -0.245453 14.060576 2.557336 -2.270683 -124.541843 47.982093 -124.901038 -0.523424 16.801781 -50.952118 
0.106559 0.236469 1.013209 85.057519 1.302941 91.391911 3.065315 6.694480 4.851513 4.596816 0.558916 -0.493773 -4.428100 7.007725 -6.932076 0.000000 -0.000000 0.000000 0.522926 -2.378834 -0.540688 -3.724385 1.070962 1.406738 6.703464 -8.742081 -0.997141 0.000000 -0.000000 0.000000 1.551091 1.359860 3.233097 3.536001 -2.541327 1.634486 1.020011 -0.935880 -2.265881 1.928885 -1.440146 9.314272 -4.119765 2.577490 2.349784 -23.347066 4.055964 1.890519 -33.270495 6.015950 11.271428 -26.635641 -45.403200 46.492365 -30.755206 -12.524005 4.304894 15.328937 -3.074906 0.128084 13.986145 2.284119 -2.610785 -123.906784 48.981231 -124.127307 1.256760 17.723271 -49.417880 
0.105250 0.237099 1.013550 85.103046 1.290004 91.098277 3.144250 6.478146 4.913979 4.425563 0.506379 -0.184891 -4.134816 7.244732 -6.912943 0.000000 -0.000000 0.000000 0.425368 -2.382932 -0.555906 -3.559088 1.289466 1.872868 6.574281 -9.023478 -1.011668 0.000000 -0.000000 0.000000 1.606146 1.266502 3.132869 3.561423 -2.750484 2.577621 0.945748 -0.947403 -2.221132 1.906537 -0.987393 11.604762 -3.654648 4.172716 3.597501 -22.541725 3.244983 2.327032 -32.889347 6.418643 11.467221 -27.942168 -46.627427 47.664696 -30.564049 -12.514489 4.676736 14.363926 -2.503124 0.522418 14.365613 1.818914 -3.031808 -123.005329 49.851243 -121.601964 6.852764 19.017758 -44.207945 
0.103067 0.237615 1.013826 85.141392 1.237897 90.860427 3.204533 6.326438 4.716203 4.214716 0.550352 0.396997 -3.786812 7.192922 -6.866093 0.000000 -0.000000 0.000000 0.315597 -2.387602 -0.696592 -3.419903 1.580825 2.359318 6.287872 -9.286252 -1.052829 0.000000 -0.000000 0.000000 1.515708 1.231544 3.039898 3.734364 -3.031200 3.756512 0.886150 -1.017572 -2.227699 1.873111 -0.344547 14.230346 -3.422231 5.876347 4.954491 -21.902277 2.667515 2.672353 -32.617778 6.473050 11.350927 -28.715822 -47.754752 48.345451 -30.738278 -12.038983 5.574392 13.758384 -2.074340 0.772157 15.074085 1.744882 -3.328545 -121.891376 50.728539 -117.967101 14.801172 19.779748 -36.321029 
0.099994 0.237847 1.013927 85.077972 1.146319 90.378730 3.265988 6.018989 4.812391 3.887071 0.533686 0.915014 -3.468192 7.464067 -6.925367 0.000000 -0.000000 0.000000 0.110365 -2.409797 -0.808665 -3.207403 1.701375 3.151097 6.153818 -9.338264 -1.213896 0.000000 -0.000000 0.000000 1.227214 1.339647 3.125371 4.048515 -3.346717 5.462145 0.855025 -1.069039 -2.090105 1.963479 0.703552 16.445316 -3.385401 7.010908 6.349945 -21.630757 2.048397 2.728591 -32.278449 6.129730 11.194922 -28.438588 -48.667555 47.811508 -30.944440 -11.499711 6.281073 14.124083 -1.815340 0.634466 15.485440 1.942661 -3.367436 -120.520477 51.833650 -113.708084 21.876677 18.699363 -27.882519 
0.095262 0.238003 1.014015 85.182875 1.103582 90.149518 3.402494 5.624466 4.317259 3.473587 0.649885 1.766389 -3.228622 7.554878 -7.040097 0.000000 -0.000000 0.000000 -0.021451 -2.381128 -1.394291 -2.995582 1.597917 4.175324 6.074629 -9.320562 -1.379157 0.000000 -0.000000 0.000000 1.049653 1.324744 3.762687 4.365701 -3.703369 6.306836 0.826896 -1.133369 -1.713466 2.034753 2.077632 18.133844 -3.556275 7.452258 8.038307 -21.606566 1.695176 2.763775 -32.331894 5.430349 10.747050 -26.704583 -49.103612 45.845022 -31.164567 -10.937232 6.727043 14.926415 -1.892578 0.469139 16.524370 2.524216 -2.958195 -119.183578 53.383639 -109.444099 26.599649 16.451463 -20.877887 
0.090129 0.237778 1.014218 85.111446 1.000464 90.110286 3.421818 5.580795 3.618560 3.121185 0.705544 2.542195 -3.143775 7.490305 -7.123543 0.000000 -0.000000 0.000000 -0.227409 -2.464736 -2.295581 -2.803196 1.474583 5.244294 5.979858 -8.936249 -1.450270 0.000000 -0.000000 0.000000 0.868455 1.388228 4.307630 4.526509 -3.979372 7.425606 0.721817 -1.075839 -1.479632 2.079179 3.383420 19.250619 -3.363647 7.387358 9.409536 -21.725958 1.488472 2.575675 -32.914544 4.403360 9.719192 -23.594964 -49.069476 42.853184 -31.804153 -9.999703 7.108847 16.497537 -2.177763 0.267828 18.184967 3.256808 -2.637659 -117.228224 55.679602 -104.312629 29.487773 13.274772 -14.191634 
0.084476 0.237390 1.014443 85.167283 0.893760 90.332907 3.383689 5.364162 2.556043 2.856854 1.087595 3.427039 -3.132434 7.028677 -7.155976 0.000000 -0.000000 0.000000 -0.399997 -2.451570 -3.262453 -2.716268 0.983624 5.927133 5.931829 -8.404204 -1.324356 0.000000 -0.000000 0.000000 0.797935 1.441281 5.069681 4.681864 -4.163518 8.193697 0.644639 -0.988714 -1.360739 1.889387 4.543265 19.896923 -3.550086 7.337838 10.350593 -22.448305 1.461683 1.824740 -33.726164 3.154071 8.672425 -19.062091 -48.805425 38.431706 -32.864810 -8.352112 8.247797 18.687785 -2.306994 0.153486 20.585481 3.654615 -1.685802 -114.360244 56.858198 -98.414681 31.495004 9.560965 -7.978273 
0.079096 0.237110 1.014085 85.399915 0.742853 90.872740 3.335203 5.278499 1.200134 2.566418 1.442913 4.180244 -3.224730 6.397725 -7.199968 0.000000 -0.000000 0.000000 -0.550782 -2.417225 -4.471834 -2.771497 0.214158 6.498237 5.882763 -7.725408 -1.449906 0.000000 -0.000000 0.000000 0.714581 1.466556 5.938322 4.801798 -4.183289 8.233435 0.631296 -0.981387 -1.478537 1.618057 5.361742 20.324381 -3.781419 7.097423 11.529682 -24.186667 1.555007 1.887428 -34.749552 1.892007 7.048155 -12.017815 -49.237636 32.318422 -34.088093 -6.200978 10.144561 21.982218 -2.542098 0.253009 22.659913 3.635024 -1.007383 -110.735091 57.952812 -92.615522 32.199886 7.200655 -4.155554 
